<?xml version="1.0" encoding="utf-8" standalone="no"?>
<!DOCTYPE svg PUBLIC "-//W3C//DTD SVG 1.1//EN"
  "http://www.w3.org/Graphics/SVG/1.1/DTD/svg11.dtd">
<svg xmlns:xlink="http://www.w3.org/1999/xlink" width="288pt" height="360pt" viewBox="0 0 288 360" xmlns="http://www.w3.org/2000/svg" version="1.1">
 <metadata>
  <rdf:RDF xmlns:dc="http://purl.org/dc/elements/1.1/" xmlns:cc="http://creativecommons.org/ns#" xmlns:rdf="http://www.w3.org/1999/02/22-rdf-syntax-ns#">
   <cc:Work>
    <dc:type rdf:resource="http://purl.org/dc/dcmitype/StillImage"/>
    <dc:date>2024-12-06T20:05:38.065369</dc:date>
    <dc:format>image/svg+xml</dc:format>
    <dc:creator>
     <cc:Agent>
      <dc:title>Matplotlib v3.7.4, https://matplotlib.org/</dc:title>
     </cc:Agent>
    </dc:creator>
   </cc:Work>
  </rdf:RDF>
 </metadata>
 <defs>
  <style type="text/css">*{stroke-linejoin: round; stroke-linecap: butt}</style>
 </defs>
 <g id="figure_1">
  <g id="patch_1">
   <path d="M 0 360 
L 288 360 
L 288 0 
L 0 0 
z
" style="fill: #ffffff"/>
  </g>
  <g id="axes_1">
   <g id="patch_2">
    <path d="M 57.54 307.14 
L 277.2 307.14 
L 277.2 16.56 
L 57.54 16.56 
z
" style="fill: #ffffff"/>
   </g>
   <g id="matplotlib.axis_1">
    <g id="xtick_1">
     <g id="line2d_1">
      <defs>
       <path id="m8a599b2b19" d="M 0 0 
L 0 -3.5 
" style="stroke: #000000; stroke-width: 0.8"/>
      </defs>
      <g>
       <use xlink:href="#m8a599b2b19" x="67.524545" y="307.14" style="stroke: #000000; stroke-width: 0.8"/>
      </g>
     </g>
     <g id="text_1">
      <!-- 0 -->
      <g transform="translate(62.75267 322.037656) scale(0.15 -0.15)">
       <defs>
        <path id="DejaVuSans-30" d="M 2034 4250 
Q 1547 4250 1301 3770 
Q 1056 3291 1056 2328 
Q 1056 1369 1301 889 
Q 1547 409 2034 409 
Q 2525 409 2770 889 
Q 3016 1369 3016 2328 
Q 3016 3291 2770 3770 
Q 2525 4250 2034 4250 
z
M 2034 4750 
Q 2819 4750 3233 4129 
Q 3647 3509 3647 2328 
Q 3647 1150 3233 529 
Q 2819 -91 2034 -91 
Q 1250 -91 836 529 
Q 422 1150 422 2328 
Q 422 3509 836 4129 
Q 1250 4750 2034 4750 
z
" transform="scale(0.015625)"/>
       </defs>
       <use xlink:href="#DejaVuSans-30"/>
      </g>
     </g>
    </g>
    <g id="xtick_2">
     <g id="line2d_2">
      <g>
       <use xlink:href="#m8a599b2b19" x="107.462727" y="307.14" style="stroke: #000000; stroke-width: 0.8"/>
      </g>
     </g>
     <g id="text_2">
      <!-- 2 -->
      <g transform="translate(102.690852 322.037656) scale(0.15 -0.15)">
       <defs>
        <path id="DejaVuSans-32" d="M 1228 531 
L 3431 531 
L 3431 0 
L 469 0 
L 469 531 
Q 828 903 1448 1529 
Q 2069 2156 2228 2338 
Q 2531 2678 2651 2914 
Q 2772 3150 2772 3378 
Q 2772 3750 2511 3984 
Q 2250 4219 1831 4219 
Q 1534 4219 1204 4116 
Q 875 4013 500 3803 
L 500 4441 
Q 881 4594 1212 4672 
Q 1544 4750 1819 4750 
Q 2544 4750 2975 4387 
Q 3406 4025 3406 3419 
Q 3406 3131 3298 2873 
Q 3191 2616 2906 2266 
Q 2828 2175 2409 1742 
Q 1991 1309 1228 531 
z
" transform="scale(0.015625)"/>
       </defs>
       <use xlink:href="#DejaVuSans-32"/>
      </g>
     </g>
    </g>
    <g id="xtick_3">
     <g id="line2d_3">
      <g>
       <use xlink:href="#m8a599b2b19" x="147.400909" y="307.14" style="stroke: #000000; stroke-width: 0.8"/>
      </g>
     </g>
     <g id="text_3">
      <!-- 4 -->
      <g transform="translate(142.629034 322.037656) scale(0.15 -0.15)">
       <defs>
        <path id="DejaVuSans-34" d="M 2419 4116 
L 825 1625 
L 2419 1625 
L 2419 4116 
z
M 2253 4666 
L 3047 4666 
L 3047 1625 
L 3713 1625 
L 3713 1100 
L 3047 1100 
L 3047 0 
L 2419 0 
L 2419 1100 
L 313 1100 
L 313 1709 
L 2253 4666 
z
" transform="scale(0.015625)"/>
       </defs>
       <use xlink:href="#DejaVuSans-34"/>
      </g>
     </g>
    </g>
    <g id="xtick_4">
     <g id="line2d_4">
      <g>
       <use xlink:href="#m8a599b2b19" x="187.339091" y="307.14" style="stroke: #000000; stroke-width: 0.8"/>
      </g>
     </g>
     <g id="text_4">
      <!-- 6 -->
      <g transform="translate(182.567216 322.037656) scale(0.15 -0.15)">
       <defs>
        <path id="DejaVuSans-36" d="M 2113 2584 
Q 1688 2584 1439 2293 
Q 1191 2003 1191 1497 
Q 1191 994 1439 701 
Q 1688 409 2113 409 
Q 2538 409 2786 701 
Q 3034 994 3034 1497 
Q 3034 2003 2786 2293 
Q 2538 2584 2113 2584 
z
M 3366 4563 
L 3366 3988 
Q 3128 4100 2886 4159 
Q 2644 4219 2406 4219 
Q 1781 4219 1451 3797 
Q 1122 3375 1075 2522 
Q 1259 2794 1537 2939 
Q 1816 3084 2150 3084 
Q 2853 3084 3261 2657 
Q 3669 2231 3669 1497 
Q 3669 778 3244 343 
Q 2819 -91 2113 -91 
Q 1303 -91 875 529 
Q 447 1150 447 2328 
Q 447 3434 972 4092 
Q 1497 4750 2381 4750 
Q 2619 4750 2861 4703 
Q 3103 4656 3366 4563 
z
" transform="scale(0.015625)"/>
       </defs>
       <use xlink:href="#DejaVuSans-36"/>
      </g>
     </g>
    </g>
    <g id="xtick_5">
     <g id="line2d_5">
      <g>
       <use xlink:href="#m8a599b2b19" x="227.277273" y="307.14" style="stroke: #000000; stroke-width: 0.8"/>
      </g>
     </g>
     <g id="text_5">
      <!-- 8 -->
      <g transform="translate(222.505398 322.037656) scale(0.15 -0.15)">
       <defs>
        <path id="DejaVuSans-38" d="M 2034 2216 
Q 1584 2216 1326 1975 
Q 1069 1734 1069 1313 
Q 1069 891 1326 650 
Q 1584 409 2034 409 
Q 2484 409 2743 651 
Q 3003 894 3003 1313 
Q 3003 1734 2745 1975 
Q 2488 2216 2034 2216 
z
M 1403 2484 
Q 997 2584 770 2862 
Q 544 3141 544 3541 
Q 544 4100 942 4425 
Q 1341 4750 2034 4750 
Q 2731 4750 3128 4425 
Q 3525 4100 3525 3541 
Q 3525 3141 3298 2862 
Q 3072 2584 2669 2484 
Q 3125 2378 3379 2068 
Q 3634 1759 3634 1313 
Q 3634 634 3220 271 
Q 2806 -91 2034 -91 
Q 1263 -91 848 271 
Q 434 634 434 1313 
Q 434 1759 690 2068 
Q 947 2378 1403 2484 
z
M 1172 3481 
Q 1172 3119 1398 2916 
Q 1625 2713 2034 2713 
Q 2441 2713 2670 2916 
Q 2900 3119 2900 3481 
Q 2900 3844 2670 4047 
Q 2441 4250 2034 4250 
Q 1625 4250 1398 4047 
Q 1172 3844 1172 3481 
z
" transform="scale(0.015625)"/>
       </defs>
       <use xlink:href="#DejaVuSans-38"/>
      </g>
     </g>
    </g>
    <g id="xtick_6">
     <g id="line2d_6">
      <g>
       <use xlink:href="#m8a599b2b19" x="267.215455" y="307.14" style="stroke: #000000; stroke-width: 0.8"/>
      </g>
     </g>
     <g id="text_6">
      <!-- 10 -->
      <g transform="translate(257.671705 322.037656) scale(0.15 -0.15)">
       <defs>
        <path id="DejaVuSans-31" d="M 794 531 
L 1825 531 
L 1825 4091 
L 703 3866 
L 703 4441 
L 1819 4666 
L 2450 4666 
L 2450 531 
L 3481 531 
L 3481 0 
L 794 0 
L 794 531 
z
" transform="scale(0.015625)"/>
       </defs>
       <use xlink:href="#DejaVuSans-31"/>
       <use xlink:href="#DejaVuSans-30" x="63.623047"/>
      </g>
     </g>
    </g>
    <g id="text_7">
     <!-- Session -->
     <g transform="translate(129.215313 344.354062) scale(0.2 -0.2)">
      <defs>
       <path id="DejaVuSans-53" d="M 3425 4513 
L 3425 3897 
Q 3066 4069 2747 4153 
Q 2428 4238 2131 4238 
Q 1616 4238 1336 4038 
Q 1056 3838 1056 3469 
Q 1056 3159 1242 3001 
Q 1428 2844 1947 2747 
L 2328 2669 
Q 3034 2534 3370 2195 
Q 3706 1856 3706 1288 
Q 3706 609 3251 259 
Q 2797 -91 1919 -91 
Q 1588 -91 1214 -16 
Q 841 59 441 206 
L 441 856 
Q 825 641 1194 531 
Q 1563 422 1919 422 
Q 2459 422 2753 634 
Q 3047 847 3047 1241 
Q 3047 1584 2836 1778 
Q 2625 1972 2144 2069 
L 1759 2144 
Q 1053 2284 737 2584 
Q 422 2884 422 3419 
Q 422 4038 858 4394 
Q 1294 4750 2059 4750 
Q 2388 4750 2728 4690 
Q 3069 4631 3425 4513 
z
" transform="scale(0.015625)"/>
       <path id="DejaVuSans-65" d="M 3597 1894 
L 3597 1613 
L 953 1613 
Q 991 1019 1311 708 
Q 1631 397 2203 397 
Q 2534 397 2845 478 
Q 3156 559 3463 722 
L 3463 178 
Q 3153 47 2828 -22 
Q 2503 -91 2169 -91 
Q 1331 -91 842 396 
Q 353 884 353 1716 
Q 353 2575 817 3079 
Q 1281 3584 2069 3584 
Q 2775 3584 3186 3129 
Q 3597 2675 3597 1894 
z
M 3022 2063 
Q 3016 2534 2758 2815 
Q 2500 3097 2075 3097 
Q 1594 3097 1305 2825 
Q 1016 2553 972 2059 
L 3022 2063 
z
" transform="scale(0.015625)"/>
       <path id="DejaVuSans-73" d="M 2834 3397 
L 2834 2853 
Q 2591 2978 2328 3040 
Q 2066 3103 1784 3103 
Q 1356 3103 1142 2972 
Q 928 2841 928 2578 
Q 928 2378 1081 2264 
Q 1234 2150 1697 2047 
L 1894 2003 
Q 2506 1872 2764 1633 
Q 3022 1394 3022 966 
Q 3022 478 2636 193 
Q 2250 -91 1575 -91 
Q 1294 -91 989 -36 
Q 684 19 347 128 
L 347 722 
Q 666 556 975 473 
Q 1284 391 1588 391 
Q 1994 391 2212 530 
Q 2431 669 2431 922 
Q 2431 1156 2273 1281 
Q 2116 1406 1581 1522 
L 1381 1569 
Q 847 1681 609 1914 
Q 372 2147 372 2553 
Q 372 3047 722 3315 
Q 1072 3584 1716 3584 
Q 2034 3584 2315 3537 
Q 2597 3491 2834 3397 
z
" transform="scale(0.015625)"/>
       <path id="DejaVuSans-69" d="M 603 3500 
L 1178 3500 
L 1178 0 
L 603 0 
L 603 3500 
z
M 603 4863 
L 1178 4863 
L 1178 4134 
L 603 4134 
L 603 4863 
z
" transform="scale(0.015625)"/>
       <path id="DejaVuSans-6f" d="M 1959 3097 
Q 1497 3097 1228 2736 
Q 959 2375 959 1747 
Q 959 1119 1226 758 
Q 1494 397 1959 397 
Q 2419 397 2687 759 
Q 2956 1122 2956 1747 
Q 2956 2369 2687 2733 
Q 2419 3097 1959 3097 
z
M 1959 3584 
Q 2709 3584 3137 3096 
Q 3566 2609 3566 1747 
Q 3566 888 3137 398 
Q 2709 -91 1959 -91 
Q 1206 -91 779 398 
Q 353 888 353 1747 
Q 353 2609 779 3096 
Q 1206 3584 1959 3584 
z
" transform="scale(0.015625)"/>
       <path id="DejaVuSans-6e" d="M 3513 2113 
L 3513 0 
L 2938 0 
L 2938 2094 
Q 2938 2591 2744 2837 
Q 2550 3084 2163 3084 
Q 1697 3084 1428 2787 
Q 1159 2491 1159 1978 
L 1159 0 
L 581 0 
L 581 3500 
L 1159 3500 
L 1159 2956 
Q 1366 3272 1645 3428 
Q 1925 3584 2291 3584 
Q 2894 3584 3203 3211 
Q 3513 2838 3513 2113 
z
" transform="scale(0.015625)"/>
      </defs>
      <use xlink:href="#DejaVuSans-53"/>
      <use xlink:href="#DejaVuSans-65" x="63.476562"/>
      <use xlink:href="#DejaVuSans-73" x="125"/>
      <use xlink:href="#DejaVuSans-73" x="177.099609"/>
      <use xlink:href="#DejaVuSans-69" x="229.199219"/>
      <use xlink:href="#DejaVuSans-6f" x="256.982422"/>
      <use xlink:href="#DejaVuSans-6e" x="318.164062"/>
     </g>
    </g>
   </g>
   <g id="matplotlib.axis_2">
    <g id="ytick_1">
     <g id="line2d_7">
      <defs>
       <path id="m8c034e1dd8" d="M 0 0 
L 3.5 0 
" style="stroke: #000000; stroke-width: 0.8"/>
      </defs>
      <g>
       <use xlink:href="#m8c034e1dd8" x="57.54" y="307.14" style="stroke: #000000; stroke-width: 0.8"/>
      </g>
     </g>
     <g id="text_8">
      <!-- 0 -->
      <g transform="translate(44.49625 312.838828) scale(0.15 -0.15)">
       <use xlink:href="#DejaVuSans-30"/>
      </g>
     </g>
    </g>
    <g id="ytick_2">
     <g id="line2d_8">
      <g>
       <use xlink:href="#m8c034e1dd8" x="57.54" y="258.71" style="stroke: #000000; stroke-width: 0.8"/>
      </g>
     </g>
     <g id="text_9">
      <!-- 5 -->
      <g transform="translate(44.49625 264.408828) scale(0.15 -0.15)">
       <defs>
        <path id="DejaVuSans-35" d="M 691 4666 
L 3169 4666 
L 3169 4134 
L 1269 4134 
L 1269 2991 
Q 1406 3038 1543 3061 
Q 1681 3084 1819 3084 
Q 2600 3084 3056 2656 
Q 3513 2228 3513 1497 
Q 3513 744 3044 326 
Q 2575 -91 1722 -91 
Q 1428 -91 1123 -41 
Q 819 9 494 109 
L 494 744 
Q 775 591 1075 516 
Q 1375 441 1709 441 
Q 2250 441 2565 725 
Q 2881 1009 2881 1497 
Q 2881 1984 2565 2268 
Q 2250 2553 1709 2553 
Q 1456 2553 1204 2497 
Q 953 2441 691 2322 
L 691 4666 
z
" transform="scale(0.015625)"/>
       </defs>
       <use xlink:href="#DejaVuSans-35"/>
      </g>
     </g>
    </g>
    <g id="ytick_3">
     <g id="line2d_9">
      <g>
       <use xlink:href="#m8c034e1dd8" x="57.54" y="210.28" style="stroke: #000000; stroke-width: 0.8"/>
      </g>
     </g>
     <g id="text_10">
      <!-- 10 -->
      <g transform="translate(34.9525 215.978828) scale(0.15 -0.15)">
       <use xlink:href="#DejaVuSans-31"/>
       <use xlink:href="#DejaVuSans-30" x="63.623047"/>
      </g>
     </g>
    </g>
    <g id="ytick_4">
     <g id="line2d_10">
      <g>
       <use xlink:href="#m8c034e1dd8" x="57.54" y="161.85" style="stroke: #000000; stroke-width: 0.8"/>
      </g>
     </g>
     <g id="text_11">
      <!-- 15 -->
      <g transform="translate(34.9525 167.548828) scale(0.15 -0.15)">
       <use xlink:href="#DejaVuSans-31"/>
       <use xlink:href="#DejaVuSans-35" x="63.623047"/>
      </g>
     </g>
    </g>
    <g id="ytick_5">
     <g id="line2d_11">
      <g>
       <use xlink:href="#m8c034e1dd8" x="57.54" y="113.42" style="stroke: #000000; stroke-width: 0.8"/>
      </g>
     </g>
     <g id="text_12">
      <!-- 20 -->
      <g transform="translate(34.9525 119.118828) scale(0.15 -0.15)">
       <use xlink:href="#DejaVuSans-32"/>
       <use xlink:href="#DejaVuSans-30" x="63.623047"/>
      </g>
     </g>
    </g>
    <g id="ytick_6">
     <g id="line2d_12">
      <g>
       <use xlink:href="#m8c034e1dd8" x="57.54" y="64.99" style="stroke: #000000; stroke-width: 0.8"/>
      </g>
     </g>
     <g id="text_13">
      <!-- 25 -->
      <g transform="translate(34.9525 70.688828) scale(0.15 -0.15)">
       <use xlink:href="#DejaVuSans-32"/>
       <use xlink:href="#DejaVuSans-35" x="63.623047"/>
      </g>
     </g>
    </g>
    <g id="ytick_7">
     <g id="line2d_13">
      <g>
       <use xlink:href="#m8c034e1dd8" x="57.54" y="16.56" style="stroke: #000000; stroke-width: 0.8"/>
      </g>
     </g>
     <g id="text_14">
      <!-- 30 -->
      <g transform="translate(34.9525 22.258828) scale(0.15 -0.15)">
       <defs>
        <path id="DejaVuSans-33" d="M 2597 2516 
Q 3050 2419 3304 2112 
Q 3559 1806 3559 1356 
Q 3559 666 3084 287 
Q 2609 -91 1734 -91 
Q 1441 -91 1130 -33 
Q 819 25 488 141 
L 488 750 
Q 750 597 1062 519 
Q 1375 441 1716 441 
Q 2309 441 2620 675 
Q 2931 909 2931 1356 
Q 2931 1769 2642 2001 
Q 2353 2234 1838 2234 
L 1294 2234 
L 1294 2753 
L 1863 2753 
Q 2328 2753 2575 2939 
Q 2822 3125 2822 3475 
Q 2822 3834 2567 4026 
Q 2313 4219 1838 4219 
Q 1578 4219 1281 4162 
Q 984 4106 628 3988 
L 628 4550 
Q 988 4650 1302 4700 
Q 1616 4750 1894 4750 
Q 2613 4750 3031 4423 
Q 3450 4097 3450 3541 
Q 3450 3153 3228 2886 
Q 3006 2619 2597 2516 
z
" transform="scale(0.015625)"/>
       </defs>
       <use xlink:href="#DejaVuSans-33"/>
       <use xlink:href="#DejaVuSans-30" x="63.623047"/>
      </g>
     </g>
    </g>
    <g id="text_15">
     <!-- Vernier offset (difficult level) -->
     <g transform="translate(26.793125 304.425) rotate(-90) scale(0.2 -0.2)">
      <defs>
       <path id="DejaVuSans-56" d="M 1831 0 
L 50 4666 
L 709 4666 
L 2188 738 
L 3669 4666 
L 4325 4666 
L 2547 0 
L 1831 0 
z
" transform="scale(0.015625)"/>
       <path id="DejaVuSans-72" d="M 2631 2963 
Q 2534 3019 2420 3045 
Q 2306 3072 2169 3072 
Q 1681 3072 1420 2755 
Q 1159 2438 1159 1844 
L 1159 0 
L 581 0 
L 581 3500 
L 1159 3500 
L 1159 2956 
Q 1341 3275 1631 3429 
Q 1922 3584 2338 3584 
Q 2397 3584 2469 3576 
Q 2541 3569 2628 3553 
L 2631 2963 
z
" transform="scale(0.015625)"/>
       <path id="DejaVuSans-20" transform="scale(0.015625)"/>
       <path id="DejaVuSans-66" d="M 2375 4863 
L 2375 4384 
L 1825 4384 
Q 1516 4384 1395 4259 
Q 1275 4134 1275 3809 
L 1275 3500 
L 2222 3500 
L 2222 3053 
L 1275 3053 
L 1275 0 
L 697 0 
L 697 3053 
L 147 3053 
L 147 3500 
L 697 3500 
L 697 3744 
Q 697 4328 969 4595 
Q 1241 4863 1831 4863 
L 2375 4863 
z
" transform="scale(0.015625)"/>
       <path id="DejaVuSans-74" d="M 1172 4494 
L 1172 3500 
L 2356 3500 
L 2356 3053 
L 1172 3053 
L 1172 1153 
Q 1172 725 1289 603 
Q 1406 481 1766 481 
L 2356 481 
L 2356 0 
L 1766 0 
Q 1100 0 847 248 
Q 594 497 594 1153 
L 594 3053 
L 172 3053 
L 172 3500 
L 594 3500 
L 594 4494 
L 1172 4494 
z
" transform="scale(0.015625)"/>
       <path id="DejaVuSans-28" d="M 1984 4856 
Q 1566 4138 1362 3434 
Q 1159 2731 1159 2009 
Q 1159 1288 1364 580 
Q 1569 -128 1984 -844 
L 1484 -844 
Q 1016 -109 783 600 
Q 550 1309 550 2009 
Q 550 2706 781 3412 
Q 1013 4119 1484 4856 
L 1984 4856 
z
" transform="scale(0.015625)"/>
       <path id="DejaVuSans-64" d="M 2906 2969 
L 2906 4863 
L 3481 4863 
L 3481 0 
L 2906 0 
L 2906 525 
Q 2725 213 2448 61 
Q 2172 -91 1784 -91 
Q 1150 -91 751 415 
Q 353 922 353 1747 
Q 353 2572 751 3078 
Q 1150 3584 1784 3584 
Q 2172 3584 2448 3432 
Q 2725 3281 2906 2969 
z
M 947 1747 
Q 947 1113 1208 752 
Q 1469 391 1925 391 
Q 2381 391 2643 752 
Q 2906 1113 2906 1747 
Q 2906 2381 2643 2742 
Q 2381 3103 1925 3103 
Q 1469 3103 1208 2742 
Q 947 2381 947 1747 
z
" transform="scale(0.015625)"/>
       <path id="DejaVuSans-63" d="M 3122 3366 
L 3122 2828 
Q 2878 2963 2633 3030 
Q 2388 3097 2138 3097 
Q 1578 3097 1268 2742 
Q 959 2388 959 1747 
Q 959 1106 1268 751 
Q 1578 397 2138 397 
Q 2388 397 2633 464 
Q 2878 531 3122 666 
L 3122 134 
Q 2881 22 2623 -34 
Q 2366 -91 2075 -91 
Q 1284 -91 818 406 
Q 353 903 353 1747 
Q 353 2603 823 3093 
Q 1294 3584 2113 3584 
Q 2378 3584 2631 3529 
Q 2884 3475 3122 3366 
z
" transform="scale(0.015625)"/>
       <path id="DejaVuSans-75" d="M 544 1381 
L 544 3500 
L 1119 3500 
L 1119 1403 
Q 1119 906 1312 657 
Q 1506 409 1894 409 
Q 2359 409 2629 706 
Q 2900 1003 2900 1516 
L 2900 3500 
L 3475 3500 
L 3475 0 
L 2900 0 
L 2900 538 
Q 2691 219 2414 64 
Q 2138 -91 1772 -91 
Q 1169 -91 856 284 
Q 544 659 544 1381 
z
M 1991 3584 
L 1991 3584 
z
" transform="scale(0.015625)"/>
       <path id="DejaVuSans-6c" d="M 603 4863 
L 1178 4863 
L 1178 0 
L 603 0 
L 603 4863 
z
" transform="scale(0.015625)"/>
       <path id="DejaVuSans-76" d="M 191 3500 
L 800 3500 
L 1894 563 
L 2988 3500 
L 3597 3500 
L 2284 0 
L 1503 0 
L 191 3500 
z
" transform="scale(0.015625)"/>
       <path id="DejaVuSans-29" d="M 513 4856 
L 1013 4856 
Q 1481 4119 1714 3412 
Q 1947 2706 1947 2009 
Q 1947 1309 1714 600 
Q 1481 -109 1013 -844 
L 513 -844 
Q 928 -128 1133 580 
Q 1338 1288 1338 2009 
Q 1338 2731 1133 3434 
Q 928 4138 513 4856 
z
" transform="scale(0.015625)"/>
      </defs>
      <use xlink:href="#DejaVuSans-56"/>
      <use xlink:href="#DejaVuSans-65" x="60.658203"/>
      <use xlink:href="#DejaVuSans-72" x="122.181641"/>
      <use xlink:href="#DejaVuSans-6e" x="161.544922"/>
      <use xlink:href="#DejaVuSans-69" x="224.923828"/>
      <use xlink:href="#DejaVuSans-65" x="252.707031"/>
      <use xlink:href="#DejaVuSans-72" x="314.230469"/>
      <use xlink:href="#DejaVuSans-20" x="355.34375"/>
      <use xlink:href="#DejaVuSans-6f" x="387.130859"/>
      <use xlink:href="#DejaVuSans-66" x="448.3125"/>
      <use xlink:href="#DejaVuSans-66" x="483.517578"/>
      <use xlink:href="#DejaVuSans-73" x="518.722656"/>
      <use xlink:href="#DejaVuSans-65" x="570.822266"/>
      <use xlink:href="#DejaVuSans-74" x="632.345703"/>
      <use xlink:href="#DejaVuSans-20" x="671.554688"/>
      <use xlink:href="#DejaVuSans-28" x="703.341797"/>
      <use xlink:href="#DejaVuSans-64" x="742.355469"/>
      <use xlink:href="#DejaVuSans-69" x="805.832031"/>
      <use xlink:href="#DejaVuSans-66" x="833.615234"/>
      <use xlink:href="#DejaVuSans-66" x="868.820312"/>
      <use xlink:href="#DejaVuSans-69" x="904.025391"/>
      <use xlink:href="#DejaVuSans-63" x="931.808594"/>
      <use xlink:href="#DejaVuSans-75" x="986.789062"/>
      <use xlink:href="#DejaVuSans-6c" x="1050.167969"/>
      <use xlink:href="#DejaVuSans-74" x="1077.951172"/>
      <use xlink:href="#DejaVuSans-20" x="1117.160156"/>
      <use xlink:href="#DejaVuSans-6c" x="1148.947266"/>
      <use xlink:href="#DejaVuSans-65" x="1176.730469"/>
      <use xlink:href="#DejaVuSans-76" x="1238.253906"/>
      <use xlink:href="#DejaVuSans-65" x="1297.433594"/>
      <use xlink:href="#DejaVuSans-6c" x="1358.957031"/>
      <use xlink:href="#DejaVuSans-29" x="1386.740234"/>
     </g>
    </g>
   </g>
   <g id="line2d_14">
    <defs>
     <path id="mce419e0cfa" d="M -0 8.485281 
L 8.485281 0 
L 0 -8.485281 
L -8.485281 -0 
z
" style="stroke: #3162fe; stroke-linejoin: miter"/>
    </defs>
    <g clip-path="url(#p31c638ea38)"/>
   </g>
   <g id="line2d_15">
    <defs>
     <path id="mb8d61d609f" d="M 0 6 
C 1.591219 6 3.117479 5.367802 4.242641 4.242641 
C 5.367802 3.117479 6 1.591219 6 0 
C 6 -1.591219 5.367802 -3.117479 4.242641 -4.242641 
C 3.117479 -5.367802 1.591219 -6 0 -6 
C -1.591219 -6 -3.117479 -5.367802 -4.242641 -4.242641 
C -5.367802 -3.117479 -6 -1.591219 -6 0 
C -6 1.591219 -5.367802 3.117479 -4.242641 4.242641 
C -3.117479 5.367802 -1.591219 6 0 6 
z
" style="stroke: #39b839"/>
    </defs>
    <g clip-path="url(#p31c638ea38)"/>
   </g>
   <g id="line2d_16">
    <defs>
     <path id="mf9bbbe12e4" d="M -6 6 
L 6 6 
L 6 -6 
L -6 -6 
z
" style="stroke: #7300e5; stroke-linejoin: miter"/>
    </defs>
    <g clip-path="url(#p31c638ea38)"/>
   </g>
   <g id="line2d_17">
    <defs>
     <path id="mce1b7f33dd" d="M 0 -6 
L -6 6 
L 6 6 
z
" style="stroke: #ff0000; stroke-linejoin: miter"/>
    </defs>
    <g clip-path="url(#p31c638ea38)"/>
   </g>
   <g id="LineCollection_1">
    <path d="M 67.524545 115.115478 
L 67.524545 101.72847 
" clip-path="url(#p31c638ea38)" style="fill: none; stroke: #3162fe"/>
    <path d="M 87.493636 139.576252 
L 87.493636 124.733795 
" clip-path="url(#p31c638ea38)" style="fill: none; stroke: #3162fe"/>
    <path d="M 107.462727 183.413585 
L 107.462727 169.240098 
" clip-path="url(#p31c638ea38)" style="fill: none; stroke: #3162fe"/>
    <path d="M 127.431818 221.790121 
L 127.431818 208.326236 
" clip-path="url(#p31c638ea38)" style="fill: none; stroke: #3162fe"/>
    <path d="M 147.400909 250.515194 
L 147.400909 243.879632 
" clip-path="url(#p31c638ea38)" style="fill: none; stroke: #3162fe"/>
    <path d="M 167.37 261.585162 
L 167.37 257.85341 
" clip-path="url(#p31c638ea38)" style="fill: none; stroke: #3162fe"/>
    <path d="M 187.339091 264.566887 
L 187.339091 260.419252 
" clip-path="url(#p31c638ea38)" style="fill: none; stroke: #3162fe"/>
    <path d="M 207.308182 266.378293 
L 207.308182 262.851081 
" clip-path="url(#p31c638ea38)" style="fill: none; stroke: #3162fe"/>
    <path d="M 227.277273 267.582476 
L 227.277273 264.152418 
" clip-path="url(#p31c638ea38)" style="fill: none; stroke: #3162fe"/>
    <path d="M 247.246364 268.249561 
L 247.246364 264.818963 
" clip-path="url(#p31c638ea38)" style="fill: none; stroke: #3162fe"/>
    <path d="M 267.215455 268.667007 
L 267.215455 265.286281 
" clip-path="url(#p31c638ea38)" style="fill: none; stroke: #3162fe"/>
   </g>
   <g id="line2d_18">
    <defs>
     <path id="m8b8b806283" d="M 3 0 
L -3 -0 
" style="stroke: #3162fe"/>
    </defs>
    <g clip-path="url(#p31c638ea38)">
     <use xlink:href="#m8b8b806283" x="67.524545" y="115.115478" style="fill: #3162fe; stroke: #3162fe"/>
     <use xlink:href="#m8b8b806283" x="87.493636" y="139.576252" style="fill: #3162fe; stroke: #3162fe"/>
     <use xlink:href="#m8b8b806283" x="107.462727" y="183.413585" style="fill: #3162fe; stroke: #3162fe"/>
     <use xlink:href="#m8b8b806283" x="127.431818" y="221.790121" style="fill: #3162fe; stroke: #3162fe"/>
     <use xlink:href="#m8b8b806283" x="147.400909" y="250.515194" style="fill: #3162fe; stroke: #3162fe"/>
     <use xlink:href="#m8b8b806283" x="167.37" y="261.585162" style="fill: #3162fe; stroke: #3162fe"/>
     <use xlink:href="#m8b8b806283" x="187.339091" y="264.566887" style="fill: #3162fe; stroke: #3162fe"/>
     <use xlink:href="#m8b8b806283" x="207.308182" y="266.378293" style="fill: #3162fe; stroke: #3162fe"/>
     <use xlink:href="#m8b8b806283" x="227.277273" y="267.582476" style="fill: #3162fe; stroke: #3162fe"/>
     <use xlink:href="#m8b8b806283" x="247.246364" y="268.249561" style="fill: #3162fe; stroke: #3162fe"/>
     <use xlink:href="#m8b8b806283" x="267.215455" y="268.667007" style="fill: #3162fe; stroke: #3162fe"/>
    </g>
   </g>
   <g id="line2d_19">
    <g clip-path="url(#p31c638ea38)">
     <use xlink:href="#m8b8b806283" x="67.524545" y="101.72847" style="fill: #3162fe; stroke: #3162fe"/>
     <use xlink:href="#m8b8b806283" x="87.493636" y="124.733795" style="fill: #3162fe; stroke: #3162fe"/>
     <use xlink:href="#m8b8b806283" x="107.462727" y="169.240098" style="fill: #3162fe; stroke: #3162fe"/>
     <use xlink:href="#m8b8b806283" x="127.431818" y="208.326236" style="fill: #3162fe; stroke: #3162fe"/>
     <use xlink:href="#m8b8b806283" x="147.400909" y="243.879632" style="fill: #3162fe; stroke: #3162fe"/>
     <use xlink:href="#m8b8b806283" x="167.37" y="257.85341" style="fill: #3162fe; stroke: #3162fe"/>
     <use xlink:href="#m8b8b806283" x="187.339091" y="260.419252" style="fill: #3162fe; stroke: #3162fe"/>
     <use xlink:href="#m8b8b806283" x="207.308182" y="262.851081" style="fill: #3162fe; stroke: #3162fe"/>
     <use xlink:href="#m8b8b806283" x="227.277273" y="264.152418" style="fill: #3162fe; stroke: #3162fe"/>
     <use xlink:href="#m8b8b806283" x="247.246364" y="264.818963" style="fill: #3162fe; stroke: #3162fe"/>
     <use xlink:href="#m8b8b806283" x="267.215455" y="265.286281" style="fill: #3162fe; stroke: #3162fe"/>
    </g>
   </g>
   <g id="LineCollection_2">
    <path d="M 67.524545 109.867 
L 67.524545 97.014588 
" clip-path="url(#p31c638ea38)" style="fill: none; stroke: #39b839"/>
   </g>
   <g id="line2d_20">
    <defs>
     <path id="m5f2f0a2438" d="M 3 0 
L -3 -0 
" style="stroke: #39b839"/>
    </defs>
    <g clip-path="url(#p31c638ea38)">
     <use xlink:href="#m5f2f0a2438" x="67.524545" y="109.867" style="fill: #39b839; stroke: #39b839"/>
    </g>
   </g>
   <g id="line2d_21">
    <g clip-path="url(#p31c638ea38)">
     <use xlink:href="#m5f2f0a2438" x="67.524545" y="97.014588" style="fill: #39b839; stroke: #39b839"/>
    </g>
   </g>
   <g id="LineCollection_3">
    <path d="M 267.215455 114.818614 
L 267.215455 102.002324 
" clip-path="url(#p31c638ea38)" style="fill: none; stroke: #39b839"/>
   </g>
   <g id="line2d_22">
    <g clip-path="url(#p31c638ea38)">
     <use xlink:href="#m5f2f0a2438" x="267.215455" y="114.818614" style="fill: #39b839; stroke: #39b839"/>
    </g>
   </g>
   <g id="line2d_23">
    <g clip-path="url(#p31c638ea38)">
     <use xlink:href="#m5f2f0a2438" x="267.215455" y="102.002324" style="fill: #39b839; stroke: #39b839"/>
    </g>
   </g>
   <g id="LineCollection_4">
    <path d="M 67.524545 117.032919 
L 67.524545 103.458592 
" clip-path="url(#p31c638ea38)" style="fill: none; stroke: #7300e5"/>
   </g>
   <g id="line2d_24">
    <defs>
     <path id="m3afb943248" d="M 3 0 
L -3 -0 
" style="stroke: #7300e5"/>
    </defs>
    <g clip-path="url(#p31c638ea38)">
     <use xlink:href="#m3afb943248" x="67.524545" y="117.032919" style="fill: #7300e5; stroke: #7300e5"/>
    </g>
   </g>
   <g id="line2d_25">
    <g clip-path="url(#p31c638ea38)">
     <use xlink:href="#m3afb943248" x="67.524545" y="103.458592" style="fill: #7300e5; stroke: #7300e5"/>
    </g>
   </g>
   <g id="LineCollection_5">
    <path d="M 267.215455 151.032035 
L 267.215455 135.229592 
" clip-path="url(#p31c638ea38)" style="fill: none; stroke: #7300e5"/>
   </g>
   <g id="line2d_26">
    <g clip-path="url(#p31c638ea38)">
     <use xlink:href="#m3afb943248" x="267.215455" y="151.032035" style="fill: #7300e5; stroke: #7300e5"/>
    </g>
   </g>
   <g id="line2d_27">
    <g clip-path="url(#p31c638ea38)">
     <use xlink:href="#m3afb943248" x="267.215455" y="135.229592" style="fill: #7300e5; stroke: #7300e5"/>
    </g>
   </g>
   <g id="LineCollection_6">
    <path d="M 67.524545 109.380396 
L 67.524545 96.405071 
" clip-path="url(#p31c638ea38)" style="fill: none; stroke: #ff0000"/>
   </g>
   <g id="line2d_28">
    <defs>
     <path id="m603e388d9c" d="M 3 0 
L -3 -0 
" style="stroke: #ff0000"/>
    </defs>
    <g clip-path="url(#p31c638ea38)">
     <use xlink:href="#m603e388d9c" x="67.524545" y="109.380396" style="fill: #ff0000; stroke: #ff0000"/>
    </g>
   </g>
   <g id="line2d_29">
    <g clip-path="url(#p31c638ea38)">
     <use xlink:href="#m603e388d9c" x="67.524545" y="96.405071" style="fill: #ff0000; stroke: #ff0000"/>
    </g>
   </g>
   <g id="LineCollection_7">
    <path d="M 267.215455 111.6044 
L 267.215455 99.561955 
" clip-path="url(#p31c638ea38)" style="fill: none; stroke: #ff0000"/>
   </g>
   <g id="line2d_30">
    <g clip-path="url(#p31c638ea38)">
     <use xlink:href="#m603e388d9c" x="267.215455" y="111.6044" style="fill: #ff0000; stroke: #ff0000"/>
    </g>
   </g>
   <g id="line2d_31">
    <g clip-path="url(#p31c638ea38)">
     <use xlink:href="#m603e388d9c" x="267.215455" y="99.561955" style="fill: #ff0000; stroke: #ff0000"/>
    </g>
   </g>
   <g id="line2d_32">
    <path d="M 67.524545 108.421974 
L 87.493636 132.155023 
L 107.462727 176.326842 
L 127.431818 215.058178 
L 147.400909 247.197413 
L 167.37 259.719286 
L 187.339091 262.493069 
L 207.308182 264.614687 
L 227.277273 265.867447 
L 247.246364 266.534262 
L 267.215455 266.976644 
" clip-path="url(#p31c638ea38)" style="fill: none; stroke-dasharray: 3.7,1.6; stroke-dashoffset: 0; stroke: #3162fe"/>
    <g clip-path="url(#p31c638ea38)">
     <use xlink:href="#mce419e0cfa" x="67.524545" y="108.421974" style="fill-opacity: 0; stroke: #3162fe; stroke-linejoin: miter"/>
     <use xlink:href="#mce419e0cfa" x="87.493636" y="132.155023" style="fill-opacity: 0; stroke: #3162fe; stroke-linejoin: miter"/>
     <use xlink:href="#mce419e0cfa" x="107.462727" y="176.326842" style="fill-opacity: 0; stroke: #3162fe; stroke-linejoin: miter"/>
     <use xlink:href="#mce419e0cfa" x="127.431818" y="215.058178" style="fill-opacity: 0; stroke: #3162fe; stroke-linejoin: miter"/>
     <use xlink:href="#mce419e0cfa" x="147.400909" y="247.197413" style="fill-opacity: 0; stroke: #3162fe; stroke-linejoin: miter"/>
     <use xlink:href="#mce419e0cfa" x="167.37" y="259.719286" style="fill-opacity: 0; stroke: #3162fe; stroke-linejoin: miter"/>
     <use xlink:href="#mce419e0cfa" x="187.339091" y="262.493069" style="fill-opacity: 0; stroke: #3162fe; stroke-linejoin: miter"/>
     <use xlink:href="#mce419e0cfa" x="207.308182" y="264.614687" style="fill-opacity: 0; stroke: #3162fe; stroke-linejoin: miter"/>
     <use xlink:href="#mce419e0cfa" x="227.277273" y="265.867447" style="fill-opacity: 0; stroke: #3162fe; stroke-linejoin: miter"/>
     <use xlink:href="#mce419e0cfa" x="247.246364" y="266.534262" style="fill-opacity: 0; stroke: #3162fe; stroke-linejoin: miter"/>
     <use xlink:href="#mce419e0cfa" x="267.215455" y="266.976644" style="fill-opacity: 0; stroke: #3162fe; stroke-linejoin: miter"/>
    </g>
   </g>
   <g id="line2d_33">
    <g clip-path="url(#p31c638ea38)">
     <use xlink:href="#mb8d61d609f" x="67.524545" y="103.440794" style="fill-opacity: 0; stroke: #39b839"/>
    </g>
   </g>
   <g id="line2d_34">
    <path d="M 267.215455 108.410469 
" clip-path="url(#p31c638ea38)" style="fill: none; stroke-dasharray: 3.7,1.6; stroke-dashoffset: 0; stroke: #39b839"/>
    <g clip-path="url(#p31c638ea38)">
     <use xlink:href="#mb8d61d609f" x="267.215455" y="108.410469" style="fill-opacity: 0; stroke: #39b839"/>
    </g>
   </g>
   <g id="line2d_35">
    <g clip-path="url(#p31c638ea38)">
     <use xlink:href="#mf9bbbe12e4" x="67.524545" y="110.245755" style="fill: #7300e5; stroke: #7300e5; stroke-linejoin: miter"/>
    </g>
   </g>
   <g id="line2d_36">
    <g clip-path="url(#p31c638ea38)">
     <use xlink:href="#mf9bbbe12e4" x="267.215455" y="143.130814" style="fill: #7300e5; stroke: #7300e5; stroke-linejoin: miter"/>
    </g>
   </g>
   <g id="line2d_37">
    <g clip-path="url(#p31c638ea38)">
     <use xlink:href="#mce1b7f33dd" x="67.524545" y="102.892733" style="fill: #ff0000; stroke: #ff0000; stroke-linejoin: miter"/>
    </g>
   </g>
   <g id="line2d_38">
    <g clip-path="url(#p31c638ea38)">
     <use xlink:href="#mce1b7f33dd" x="267.215455" y="105.583177" style="fill: #ff0000; stroke: #ff0000; stroke-linejoin: miter"/>
    </g>
   </g>
   <g id="patch_3">
    <path d="M 57.54 307.14 
L 57.54 16.56 
" style="fill: none; stroke: #000000; stroke-width: 0.8; stroke-linejoin: miter; stroke-linecap: square"/>
   </g>
   <g id="patch_4">
    <path d="M 57.54 307.14 
L 277.2 307.14 
" style="fill: none; stroke: #000000; stroke-width: 0.8; stroke-linejoin: miter; stroke-linecap: square"/>
   </g>
   <g id="legend_1">
    <g id="line2d_39">
     <g>
      <use xlink:href="#mce419e0cfa" x="127.523906" y="36.207656" style="fill-opacity: 0; stroke: #3162fe; stroke-linejoin: miter"/>
     </g>
    </g>
    <g id="text_16">
     <!-- ori1_loc1 -->
     <g transform="translate(154.523906 41.457656) scale(0.15 -0.15)">
      <defs>
       <path id="DejaVuSans-5f" d="M 3263 -1063 
L 3263 -1509 
L -63 -1509 
L -63 -1063 
L 3263 -1063 
z
" transform="scale(0.015625)"/>
      </defs>
      <use xlink:href="#DejaVuSans-6f"/>
      <use xlink:href="#DejaVuSans-72" x="61.181641"/>
      <use xlink:href="#DejaVuSans-69" x="102.294922"/>
      <use xlink:href="#DejaVuSans-31" x="130.078125"/>
      <use xlink:href="#DejaVuSans-5f" x="193.701172"/>
      <use xlink:href="#DejaVuSans-6c" x="243.701172"/>
      <use xlink:href="#DejaVuSans-6f" x="271.484375"/>
      <use xlink:href="#DejaVuSans-63" x="332.666016"/>
      <use xlink:href="#DejaVuSans-31" x="387.646484"/>
     </g>
    </g>
    <g id="line2d_40">
     <g>
      <use xlink:href="#mb8d61d609f" x="127.523906" y="58.642031" style="fill-opacity: 0; stroke: #39b839"/>
     </g>
    </g>
    <g id="text_17">
     <!-- ori2_loc2 -->
     <g transform="translate(154.523906 63.892031) scale(0.15 -0.15)">
      <use xlink:href="#DejaVuSans-6f"/>
      <use xlink:href="#DejaVuSans-72" x="61.181641"/>
      <use xlink:href="#DejaVuSans-69" x="102.294922"/>
      <use xlink:href="#DejaVuSans-32" x="130.078125"/>
      <use xlink:href="#DejaVuSans-5f" x="193.701172"/>
      <use xlink:href="#DejaVuSans-6c" x="243.701172"/>
      <use xlink:href="#DejaVuSans-6f" x="271.484375"/>
      <use xlink:href="#DejaVuSans-63" x="332.666016"/>
      <use xlink:href="#DejaVuSans-32" x="387.646484"/>
     </g>
    </g>
    <g id="line2d_41">
     <g>
      <use xlink:href="#mf9bbbe12e4" x="127.523906" y="81.076406" style="fill: #7300e5; stroke: #7300e5; stroke-linejoin: miter"/>
     </g>
    </g>
    <g id="text_18">
     <!-- ori1_loc2 -->
     <g transform="translate(154.523906 86.326406) scale(0.15 -0.15)">
      <use xlink:href="#DejaVuSans-6f"/>
      <use xlink:href="#DejaVuSans-72" x="61.181641"/>
      <use xlink:href="#DejaVuSans-69" x="102.294922"/>
      <use xlink:href="#DejaVuSans-31" x="130.078125"/>
      <use xlink:href="#DejaVuSans-5f" x="193.701172"/>
      <use xlink:href="#DejaVuSans-6c" x="243.701172"/>
      <use xlink:href="#DejaVuSans-6f" x="271.484375"/>
      <use xlink:href="#DejaVuSans-63" x="332.666016"/>
      <use xlink:href="#DejaVuSans-32" x="387.646484"/>
     </g>
    </g>
    <g id="line2d_42">
     <g>
      <use xlink:href="#mce1b7f33dd" x="127.523906" y="103.510781" style="fill: #ff0000; stroke: #ff0000; stroke-linejoin: miter"/>
     </g>
    </g>
    <g id="text_19">
     <!-- ori2_loc1 -->
     <g transform="translate(154.523906 108.760781) scale(0.15 -0.15)">
      <use xlink:href="#DejaVuSans-6f"/>
      <use xlink:href="#DejaVuSans-72" x="61.181641"/>
      <use xlink:href="#DejaVuSans-69" x="102.294922"/>
      <use xlink:href="#DejaVuSans-32" x="130.078125"/>
      <use xlink:href="#DejaVuSans-5f" x="193.701172"/>
      <use xlink:href="#DejaVuSans-6c" x="243.701172"/>
      <use xlink:href="#DejaVuSans-6f" x="271.484375"/>
      <use xlink:href="#DejaVuSans-63" x="332.666016"/>
      <use xlink:href="#DejaVuSans-31" x="387.646484"/>
     </g>
    </g>
   </g>
  </g>
 </g>
 <defs>
  <clipPath id="p31c638ea38">
   <rect x="57.54" y="16.56" width="219.66" height="290.58"/>
  </clipPath>
 </defs>
</svg>
